# xmcd CD database file
#
# Track frame offsets:
#	150
#	11832
#	25569
#	40121
#	50487
#	65541
#	93865
#	125860
#	146375
#	164626
#	225558
#	249062
#	264165
#	289208
#	342885
#
# Disc length: 4592 seconds
#
# Revision: 0
# Processed by: cddbd v1.5.2PL0 Copyright (c) Steve Scherf et al.
# Submitted via: CDex 1.70beta2
#
DISCID=c911ee0f
DTITLE=Miles Davis - The Ultimate CD
DYEAR=2010
DGENRE=Jazz
TTITLE0=Move
TTITLE1=Boplicity
TTITLE2=Venus De Milo
TTITLE3=Israel
TTITLE4=Moon Dreams
TTITLE5=Out of the Blue
TTITLE6=Round Midnight
TTITLE7=Miles Ahead
TTITLE8=Four
TTITLE9=Walkin
TTITLE10=Oleo
TTITLE11=Summertime
TTITLE12=Blue in Green
TTITLE13=Flamenco Sketches
TTITLE14=DATA
EXTD=YEAR: 2010
EXTT0=
EXTT1=
EXTT2=
EXTT3=
EXTT4=
EXTT5=
EXTT6=
EXTT7=
EXTT8=
EXTT9=
EXTT10=
EXTT11=
EXTT12=
EXTT13=
EXTT14=
PLAYORDER=
